<svg width="32" height="32" viewBox="0 0 32 32" fill="none" xmlns="http://www.w3.org/2000/svg">
<path d="M6 9L16 9L16 4C16 3.80225 16.0587 3.60895 16.1686 3.44454C16.2785 3.28013 16.4346 3.15199 16.6173 3.07632C16.8 3.00065 17.0011 2.98085 17.195 3.01942C17.389 3.05798 17.5671 3.15319 17.707 3.293L29.707 15.293C29.8945 15.4805 29.9998 15.7348 29.9998 16C29.9998 16.2652 29.8945 16.5195 29.707 16.707L17.707 28.707C17.5671 28.8468 17.389 28.942 17.195 28.9806C17.0011 29.0191 16.8 28.9993 16.6173 28.9237C16.4346 28.848 16.2785 28.7199 16.1686 28.5555C16.0587 28.391 16 28.1977 16 28L16 23L6 23C5.46973 22.9995 4.96133 22.7886 4.58637 22.4136C4.21141 22.0387 4.00053 21.5303 4 21L4 11C4.00079 10.4698 4.21176 9.96156 4.58666 9.58666C4.96156 9.21176 5.46981 9.00079 6 9V9ZM27.586 16L18 6.414L18 11L6 11L6 21L18 21L18 25.586L27.586 16Z" fill="#F0EBE7"/>
</svg>
